HIERARCHY
ROOT SpineBase
{
  OFFSET 0.000000 0.000000 0.000000
  CHANNELS 6 Xposition Yposition Zposition Zrotation Xrotation Yrotation
  JOINT SpineMid
  {
    OFFSET 0.000000 28.124963 0.000000
    CHANNELS 3 Zrotation Xrotation Yrotation
    JOINT SpineShoulder
    {
      OFFSET 0.187089 20.924529 -0.551961
      CHANNELS 3 Zrotation Xrotation Yrotation
      JOINT Neck
      {
        OFFSET 0.167766 6.936851 -0.426443
        CHANNELS 3 Zrotation Xrotation Yrotation
        JOINT Head
        {
          OFFSET 1.029541 11.919382 0.035990
          CHANNELS 3 Zrotation Xrotation Yrotation
          End Site
          {
            OFFSET 0 0 0
          }
        }
      }
      JOINT ShoulderLeft
      {
        OFFSET -4.045012 -3.521713 -12.575977
        CHANNELS 3 Zrotation Xrotation Yrotation
        JOINT ElbowLeft
        {
          OFFSET -0.552904 -20.439837 -4.347121
          CHANNELS 3 Zrotation Xrotation Yrotation
          JOINT WristLeft
          {
            OFFSET 11.186018 -17.120314 3.496277
            CHANNELS 3 Zrotation Xrotation Yrotation
            JOINT HandLeft
            {
              OFFSET -0.175178 -4.355658 5.922567
              CHANNELS 3 Zrotation Xrotation Yrotation
              JOINT HandTipLeft
              {
                OFFSET 3.871198 -5.124697 4.149895
                CHANNELS 3 Zrotation Xrotation Yrotation
                End Site
                {
                  OFFSET 0 0 0
                }
              }
              JOINT ThumbLeft
              {
                OFFSET -3.262576 -4.113406 -4.938120
                CHANNELS 3 Zrotation Xrotation Yrotation
                End Site
                {
                  OFFSET 0 0 0
                }
              }
            }
          }
        }
      }
      JOINT ShoulderRight
      {
        OFFSET 8.048083 -4.930834 4.673753
        CHANNELS 3 Zrotation Xrotation Yrotation
        JOINT ElbowRight
        {
          OFFSET 3.658094 -27.927068 -0.030709
          CHANNELS 3 Zrotation Xrotation Yrotation
          JOINT WristRight
          {
            OFFSET 2.649763 -18.899273 -9.002720
            CHANNELS 3 Zrotation Xrotation Yrotation
            JOINT HandRight
            {
              OFFSET 1.108815 -7.302894 -3.178980
              CHANNELS 3 Zrotation Xrotation Yrotation
              JOINT HandTipRight
              {
                OFFSET 1.933111 0.333003 -2.109764
                CHANNELS 3 Zrotation Xrotation Yrotation
                End Site
                {
                  OFFSET 0 0 0
                }
              }
              JOINT ThumbRight
              {
                OFFSET 3.978133 1.106293 -4.616079
                CHANNELS 3 Zrotation Xrotation Yrotation
                End Site
                {
                  OFFSET 0 0 0
                }
              }
            }
          }
        }
      }
    }
  }
  JOINT HipLeft
  {
    OFFSET -2.256835 0.746655 -6.876855
    CHANNELS 3 Zrotation Xrotation Yrotation
    JOINT KneeLeft
    {
      OFFSET -2.502460 -29.412142 1.526938
      CHANNELS 3 Zrotation Xrotation Yrotation
      JOINT AnkleLeft
      {
        OFFSET -5.680615 -32.492528 6.064796
        CHANNELS 3 Zrotation Xrotation Yrotation
        JOINT FootLeft
        {
          OFFSET 4.691509 -5.103987 1.061991
          CHANNELS 3 Zrotation Xrotation Yrotation
          End Site
          {
            OFFSET 0 0 0
          }
        }
      }
    }
  }
  JOINT HipRight
  {
    OFFSET 4.591207 0.149430 1.055555
    CHANNELS 3 Zrotation Xrotation Yrotation
    JOINT KneeRight
    {
      OFFSET -2.906605 -27.608131 5.283733
      CHANNELS 3 Zrotation Xrotation Yrotation
      JOINT AnkleRight
      {
        OFFSET -7.087706 -31.868938 5.070046
        CHANNELS 3 Zrotation Xrotation Yrotation
        JOINT FootRight
        {
          OFFSET -0.481150 -6.304043 -6.720277
          CHANNELS 3 Zrotation Xrotation Yrotation
          End Site
          {
            OFFSET 0 0 0
          }
        }
      }
    }
  }
}
MOTION
Frames: 9
Frame Time: 0.033333
-159.922534 74.082376 399.904918 -0.000000 0.000000 -49.195991 -0.000000 0.000000 49.195991 -0.000000 0.000000 0.000000 -0.000000 0.000000 0.000000 0.000000 0.000000 0.000000 -0.000000 0.000000 0.000000 -0.000000 0.000000 0.000000 -0.000000 0.000000 0.000000 -0.000000 0.000000 0.000000 0.000000 0.000000 0.000000 0.000000 0.000000 0.000000 -0.000000 0.000000 0.000000 -0.000000 0.000000 0.000000 -0.000000 0.000000 0.000000 -0.000000 0.000000 0.000000 0.000000 0.000000 0.000000 0.000000 0.000000 0.000000 -0.000000 0.000000 49.195991 -0.000000 0.000000 0.000000 -0.000000 0.000000 0.000000 0.000000 0.000000 0.000000 -0.000000 0.000000 49.195991 -0.000000 0.000000 0.000000 -0.000000 0.000000 0.000000 0.000000 0.000000 0.000000
-159.886400 73.975034 399.965461 -0.078350 0.082062 -48.859039 0.113348 0.005015 48.859090 -0.000000 0.000000 0.000000 0.473715 -0.782315 0.069404 0.000000 0.000000 0.000000 -0.000000 0.000000 0.000000 -0.000000 0.000000 0.000000 -0.436114 -0.394434 -0.575855 1.907540 -0.035190 1.409681 0.000000 0.000000 0.000000 0.000000 0.000000 0.000000 -0.000000 0.000000 0.000000 -0.396446 1.028574 0.335350 -0.846734 -0.695057 0.242571 1.235604 -0.341192 -0.585805 0.000000 0.000000 0.000000 0.000000 0.000000 0.000000 0.113348 0.005015 48.859090 0.142494 -1.245051 0.245379 3.585650 11.758208 9.675563 0.000000 0.000000 0.000000 0.113348 0.005015 48.859090 -0.000000 0.000000 0.000000 1.120505 -0.153194 -1.183865 0.000000 0.000000 0.000000
-159.859825 73.888483 400.017175 -0.144748 0.134639 -48.594033 0.196719 0.019519 48.594170 -0.000000 0.000000 0.000000 0.836022 -1.309650 0.120237 0.000000 0.000000 0.000000 0.603601 -1.100265 -0.093018 -1.334041 1.494891 0.232527 -0.101813 -1.159980 -1.203890 3.534124 0.073890 2.643795 0.000000 0.000000 0.000000 0.000000 0.000000 0.000000 -0.000000 0.000000 0.000000 -0.622733 1.585658 0.524530 -1.919885 -1.175479 0.595234 2.522941 -0.443091 -1.153988 0.000000 0.000000 0.000000 0.000000 0.000000 0.000000 0.196719 0.019519 48.594170 0.211474 -2.137456 0.415833 4.859724 19.348383 15.404416 0.000000 0.000000 0.000000 0.196719 0.019519 48.594170 -0.000000 0.000000 0.000000 1.952844 -0.502852 -2.047057 0.000000 0.000000 0.000000
-159.842810 73.822722 400.060059 -0.199341 0.157951 -48.397481 0.250465 0.044189 48.397660 -0.000000 0.000000 0.000000 1.086521 -1.582667 0.148567 0.000000 0.000000 0.000000 0.868444 -1.492195 -0.133424 -1.813140 2.001531 0.329944 -0.224223 -1.611002 -1.673834 4.808239 0.310344 3.659317 0.000000 0.000000 0.000000 0.000000 0.000000 0.000000 -0.000000 0.000000 0.000000 -0.675785 1.676816 0.563453 -3.134692 -1.555088 1.022148 3.789668 -0.199171 -1.666683 0.000000 0.000000 0.000000 0.000000 0.000000 0.000000 -0.269902 0.920557 48.335469 -0.101204 -3.656274 0.577939 5.101065 23.310255 18.326463 0.000000 0.000000 0.000000 0.250465 0.044189 48.397660 -0.000000 0.000000 0.000000 2.498388 -1.038313 -2.590778 0.000000 0.000000 0.000000
-159.835354 73.777751 400.094113 -0.242245 0.152143 -48.267067 0.274790 0.079502 48.267198 -0.000000 0.000000 0.000000 1.224917 -1.601503 0.151908 0.000000 0.000000 0.000000 1.111959 -1.785021 -0.171498 -2.169396 2.354805 0.408530 -0.376577 -1.965470 -2.033068 5.676177 0.651306 4.424826 0.000000 0.000000 0.000000 0.000000 0.000000 0.000000 -0.000000 0.000000 0.000000 -0.555038 1.303045 0.451268 -4.371438 -1.936637 1.476320 4.929694 0.495510 -2.075634 0.000000 0.000000 0.000000 0.000000 0.000000 0.000000 -0.371715 1.178532 48.191175 -0.265074 -4.106020 0.610180 4.857877 24.349317 19.105791 0.000000 0.000000 0.000000 0.274790 0.079502 48.267198 -0.000000 0.000000 0.000000 2.759200 -1.755891 -2.816257 0.000000 0.000000 0.000000
-159.837458 73.753570 400.119338 -0.273545 0.117283 -48.201596 0.269755 0.125756 48.201580 -0.000000 0.000000 0.000000 1.250992 -1.365524 0.129211 0.000000 0.000000 0.000000 1.336176 -1.981687 -0.208300 -2.404279 2.558146 0.465480 -0.548653 -2.216850 -2.268631 6.106956 1.072041 4.922498 0.000000 0.000000 0.000000 0.000000 0.000000 0.000000 -0.000000 0.000000 0.000000 -0.000000 0.000000 0.000000 -5.740390 -1.937534 2.141368 5.811358 1.712227 -2.325432 0.000000 0.000000 0.000000 0.000000 0.000000 0.000000 -0.477380 1.405242 48.115198 -0.496081 -4.165534 0.559618 4.248817 22.754729 17.950704 0.000000 0.000000 0.000000 0.269755 0.125756 48.201580 -0.000000 0.000000 0.000000 2.737043 -2.658810 -2.723665 0.000000 0.000000 0.000000
-159.864766 73.738234 400.110475 -0.306986 0.065043 -48.302531 0.252772 0.185950 48.302295 -0.000000 0.000000 0.000000 1.180982 -0.687171 0.062929 0.000000 0.000000 0.000000 1.490789 -2.253397 -0.227826 -1.500889 2.246685 0.286579 -1.354796 -1.600170 -1.762372 4.633407 0.642907 3.448111 0.000000 0.000000 0.000000 0.000000 0.000000 0.000000 -0.000000 0.000000 0.000000 0.198547 -1.171877 -0.258050 -7.890339 -3.219142 2.894625 7.719845 3.639923 -2.223580 0.000000 0.000000 0.000000 0.000000 0.000000 0.000000 -0.546095 1.501370 48.212172 -1.055060 -3.108115 0.243539 5.019139 13.385434 10.817227 0.000000 0.000000 0.000000 0.252772 0.185950 48.302295 -0.000000 0.000000 0.000000 -0.756714 -6.371761 1.329553 0.000000 0.000000 0.000000
-159.918885 73.766462 400.062863 -0.317331 -0.041009 -48.490781 0.179601 0.264811 48.490252 -0.000000 0.000000 0.000000 0.794949 0.410611 -0.040740 0.000000 0.000000 0.000000 1.769002 -2.167853 -0.285405 -1.781040 2.157976 0.352425 -1.302880 -1.524745 -1.696078 4.198639 1.274447 3.637071 0.000000 0.000000 0.000000 0.000000 0.000000 0.000000 -0.000000 0.000000 0.000000 0.898081 -3.244469 -0.868129 -8.974167 -4.200128 3.395445 8.411174 6.656782 -2.116008 0.000000 0.000000 0.000000 0.000000 0.000000 0.000000 -0.481178 1.634533 48.412302 -1.594495 -2.100218 -0.015630 -2.210356 2.294027 0.972597 0.000000 0.000000 0.000000 0.179601 0.264811 48.490252 -0.000000 0.000000 0.000000 -0.309889 -7.568349 0.955496 0.000000 0.000000 0.000000
-159.960371 73.852318 400.080284 -0.299870 -0.198137 -48.854156 0.048106 0.356182 48.853488 -0.365908 -0.746099 -0.006829 0.711943 2.078733 -0.122649 0.000000 0.000000 0.000000 2.314341 -1.332860 -0.347710 -1.962183 2.066348 0.395144 -1.466815 -1.877089 -1.899656 4.114103 3.655557 5.174903 0.000000 0.000000 0.000000 0.000000 0.000000 0.000000 0.365850 0.746127 0.002064 1.715670 -5.049087 -1.477895 -8.636321 -4.370337 3.437634 7.377605 8.688119 -1.109239 0.000000 0.000000 0.000000 0.000000 0.000000 0.000000 -0.815865 1.763279 48.760741 -1.389078 -2.056863 -0.010897 -4.300397 -1.119079 -2.598380 0.000000 0.000000 0.000000 0.048106 0.356182 48.853488 -0.000000 0.000000 0.000000 5.950903 -5.030454 -6.003419 0.000000 0.000000 0.000000
